Coordinates
version=1
nRows=8
nColumns=36
inDegrees=yes

Units are S.I. units (second, meters, Newtons, ...)
If the header above contains a line with 'inDegrees', this indicates whether rotational values are in degrees (yes) or radians (no).

endheader
time	pelvis_tilt	pelvis_list	pelvis_rotation	pelvis_tx	pelvis_ty	pelvis_tz	hip_flexion_r	hip_adduction_r	hip_rotation_r	knee_angle_r	knee_angle_r_beta	ankle_angle_r	subtalar_angle_r	mtp_angle_r	hip_flexion_l	hip_adduction_l	hip_rotation_l	knee_angle_l	knee_angle_l_beta	ankle_angle_l	subtalar_angle_l	mtp_angle_l	lumbar_extension	lumbar_bending	lumbar_rotation	arm_flex_r	arm_add_r	arm_rot_r	elbow_flex_r	pro_sup_r	arm_flex_l	arm_add_l	arm_rot_l	elbow_flex_l	pro_sup_l
      8.81666670	      1.24083391	      0.41869673	      0.91078318	     -0.04792445	      1.07508926	     -0.18850765	     44.88256449	     -5.52109052	    -13.33876426	      3.12442081	      0.05453143	    -18.64458967	    -10.55812059	     -7.49999987	     31.30136741	      9.43870422	      2.60330066	     70.96310627	      1.23853985	     34.11383724	    -11.98914742	     -7.49999987	    -23.62848118	     -3.37716971	      1.75015018	     31.48773052	      8.95674937	     62.30764745	    119.05290188	     90.29376950	     49.43949101	      4.44627896	     69.36616904	    129.49669193	     70.36215629
      8.83333330	      1.06989976	      0.78368321	      1.15033945	     -0.04662777	      1.07257732	     -0.18957419	     44.93370555	     -5.86311846	    -13.65369410	      2.68645395	      0.04688747	    -18.54382079	    -10.90540868	     -7.49999987	     31.31364674	     10.05089483	      2.70105877	     71.73614847	      1.25203198	     33.62479670	    -12.27049349	     -7.49999987	    -23.69684686	     -3.54245130	      1.88762372	     31.36366371	      8.91670965	     61.58009640	    118.88017003	     98.27693019	     49.46400111	      4.61166403	     69.47480173	    129.57868883	     75.56796257
      8.85000000	      1.22903249	      0.76748619	      1.47658616	     -0.04514164	      1.06980324	     -0.19070696	     44.50683318	     -6.06895132	    -13.25366049	      2.66965159	      0.04659421	    -18.30775223	    -11.12643486	     -7.49999987	     31.41820157	     10.19505245	      2.78670687	     72.29120041	      1.26171947	     33.38293112	    -12.05528875	     -7.49999987	    -24.08534161	     -3.32748277	      1.94190929	     31.29510605	      8.81447198	     61.33784266	    118.64953233	     98.53746791	     49.65207883	      4.71550246	     69.51441118	    129.37530270	     75.76759590
      8.86666670	      0.63944598	      0.89206526	      1.28657551	     -0.04944690	      1.05596730	     -0.18958471	     45.55399331	     -6.10132328	    -13.14654062	      2.99874858	      0.05233804	    -18.09745601	    -11.42332520	     -7.49999987	     33.29573146	     10.25895897	      2.20182486	     74.15647122	      1.29427458	     34.87914125	    -11.76349267	     -7.49999987	    -23.75764098	     -3.44893011	      2.25279776	     31.19794770	      8.66092771	     61.22613839	    119.00921980	     98.50633905	     49.72055298	      4.75499446	     69.67782396	    129.51092669	     75.87855658
      8.88333330	      0.21103473	      1.00497867	      1.32562759	     -0.04782935	      1.05548552	     -0.19042066	     45.96850047	     -6.27348072	    -12.86245770	      3.54686794	      0.06190452	    -18.57767711	    -12.03479335	     -7.49999987	     34.37223978	     10.47292405	      2.12638675	     75.53964301	      1.31841549	     35.20444027	    -11.66070381	     -7.49999987	    -23.50783418	     -3.49641140	      2.53739115	     31.07045165	      8.47845935	     60.72940905	    119.35351107	     98.74080085	     49.82351609	      4.81697161	     69.68256797	    129.39181172	     76.31780430
      8.90000000	     -0.35341087	      1.67028981	      1.30794000	     -0.04743070	      1.04974056	     -0.18990790	     46.43482473	     -6.67541360	    -13.10613450	      3.07235593	      0.05362273	    -19.47914786	    -11.35449204	     -7.49999987	     35.29192165	     11.12108266	      1.92338896	     75.81841817	      1.32328103	     37.71105525	     -9.65680295	     -7.49999987	    -23.16531988	     -4.29732377	      2.61376697	     30.83901668	      8.47576835	     60.43638691	    119.81371733	     98.72096046	     49.89359945	      4.88865520	     69.90431250	    129.40018618	     76.40422574
      8.91666670	     -0.86817590	      2.30581380	      1.06839609	     -0.04829594	      1.04592345	     -0.18897281	     47.23193684	     -6.79604474	    -13.86595130	      2.53605923	      0.04426258	    -21.70221238	    -11.94130848	     -7.49999987	     36.76276904	     11.55828165	      1.64332302	     76.28990637	      1.33151005	     37.64403698	     -9.98190233	     -7.49999987	    -22.97951754	     -5.08699238	      2.77396092	     30.66787895	      8.60602760	     60.08703615	    120.36034043	     99.31972367	     50.38806081	      4.87953434	     69.74586377	    129.32651635	     76.46061088
      8.93333330	     -1.13172233	      2.72678346	      1.23830757	     -0.04783318	      1.04258056	     -0.18974506	     47.53069053	     -7.00634472	    -14.61219997	      2.62971977	      0.04589727	    -21.25039575	    -12.59025007	     -7.49999987	     37.12680585	     12.23514565	      1.62502277	     77.22441796	      1.34782036	     38.01381439	    -10.90839357	     -7.49999987	    -22.88392296	     -5.45090277	      2.66635453	     30.65235086	      8.79431375	     59.83571216	    120.60654661	     99.11175777	     50.60026588	      4.80900272	     69.53370814	    129.28631563	     76.03676452
